<mxfile host="app.diagrams.net" modified="2021-03-17T06:37:59.750Z" agent="5.0 (Windows NT 10.0; Win64; x64) AppleWebKit/537.36 (KHTML, like Gecko) Chrome/89.0.4389.90 Safari/537.36" etag="3foQhG-vQuW88ZhRsBQv" version="14.4.8" type="github">
  <diagram id="49KzD0q_o52CGu3O8EtS" name="Page-1">
    <mxGraphModel dx="2249" dy="762" grid="1" gridSize="10" guides="1" tooltips="1" connect="1" arrows="1" fold="1" page="1" pageScale="1" pageWidth="827" pageHeight="1169" math="0" shadow="0">
      <root>
        <mxCell id="0" />
        <mxCell id="1" parent="0" />
        <mxCell id="RPP7evLBG8meGlh0PdTi-4" value="" style="rounded=1;whiteSpace=wrap;html=1;fillColor=none;strokeColor=#004C99;" vertex="1" parent="1">
          <mxGeometry x="450" y="130" width="220" height="480" as="geometry" />
        </mxCell>
        <mxCell id="RPP7evLBG8meGlh0PdTi-5" value="Email Microsoft" style="rounded=1;whiteSpace=wrap;html=1;strokeColor=#b46504;fillColor=#fad7ac;" vertex="1" parent="1">
          <mxGeometry x="501" y="170" width="120" height="60" as="geometry" />
        </mxCell>
        <mxCell id="RPP7evLBG8meGlh0PdTi-6" value="SE Microsoft" style="rounded=1;whiteSpace=wrap;html=1;strokeColor=#b46504;fillColor=#fad7ac;" vertex="1" parent="1">
          <mxGeometry x="501" y="250" width="120" height="60" as="geometry" />
        </mxCell>
        <mxCell id="RPP7evLBG8meGlh0PdTi-7" value="Web Microsoft" style="rounded=1;whiteSpace=wrap;html=1;strokeColor=#b46504;fillColor=#fad7ac;" vertex="1" parent="1">
          <mxGeometry x="501" y="340" width="120" height="60" as="geometry" />
        </mxCell>
        <mxCell id="RPP7evLBG8meGlh0PdTi-8" value="Call Microsoft" style="rounded=1;whiteSpace=wrap;html=1;strokeColor=#b46504;fillColor=#fad7ac;" vertex="1" parent="1">
          <mxGeometry x="501" y="430" width="120" height="60" as="geometry" />
        </mxCell>
        <mxCell id="RPP7evLBG8meGlh0PdTi-66" style="edgeStyle=orthogonalEdgeStyle;rounded=0;orthogonalLoop=1;jettySize=auto;html=1;entryX=1;entryY=0.5;entryDx=0;entryDy=0;" edge="1" parent="1" source="RPP7evLBG8meGlh0PdTi-9" target="RPP7evLBG8meGlh0PdTi-65">
          <mxGeometry relative="1" as="geometry" />
        </mxCell>
        <mxCell id="RPP7evLBG8meGlh0PdTi-9" value="Chat Service" style="rounded=1;whiteSpace=wrap;html=1;strokeColor=#b46504;fillColor=#fad7ac;" vertex="1" parent="1">
          <mxGeometry x="501" y="520" width="120" height="60" as="geometry" />
        </mxCell>
        <mxCell id="RPP7evLBG8meGlh0PdTi-10" value="Call center &lt;br&gt;(IVR/CSU)" style="shape=cylinder3;whiteSpace=wrap;html=1;boundedLbl=1;backgroundOutline=1;size=15;strokeColor=#36393d;fillColor=#cce5ff;" vertex="1" parent="1">
          <mxGeometry x="720" y="425" width="90" height="70" as="geometry" />
        </mxCell>
        <mxCell id="RPP7evLBG8meGlh0PdTi-12" value="Web/mobile" style="shape=cylinder3;whiteSpace=wrap;html=1;boundedLbl=1;backgroundOutline=1;size=15;strokeColor=#36393d;fillColor=#cce5ff;" vertex="1" parent="1">
          <mxGeometry x="720" y="335" width="90" height="70" as="geometry" />
        </mxCell>
        <mxCell id="RPP7evLBG8meGlh0PdTi-13" value="Email&lt;br&gt;（MySQL）" style="shape=cylinder3;whiteSpace=wrap;html=1;boundedLbl=1;backgroundOutline=1;size=15;strokeColor=#36393d;fillColor=#cce5ff;" vertex="1" parent="1">
          <mxGeometry x="720" y="165" width="90" height="70" as="geometry" />
        </mxCell>
        <mxCell id="RPP7evLBG8meGlh0PdTi-14" value="Shipment Event" style="shape=cylinder3;whiteSpace=wrap;html=1;boundedLbl=1;backgroundOutline=1;size=15;strokeColor=#36393d;fillColor=#cce5ff;" vertex="1" parent="1">
          <mxGeometry x="720" y="245" width="90" height="70" as="geometry" />
        </mxCell>
        <mxCell id="RPP7evLBG8meGlh0PdTi-15" value="Email&lt;br&gt;（MongoDB）" style="shape=cylinder3;whiteSpace=wrap;html=1;boundedLbl=1;backgroundOutline=1;size=15;strokeColor=#36393d;fillColor=#cce5ff;" vertex="1" parent="1">
          <mxGeometry x="860" y="165" width="90" height="70" as="geometry" />
        </mxCell>
        <mxCell id="RPP7evLBG8meGlh0PdTi-16" value="Chat" style="shape=cylinder3;whiteSpace=wrap;html=1;boundedLbl=1;backgroundOutline=1;size=15;strokeColor=#36393d;fillColor=#cce5ff;" vertex="1" parent="1">
          <mxGeometry x="720" y="515" width="90" height="70" as="geometry" />
        </mxCell>
        <mxCell id="RPP7evLBG8meGlh0PdTi-24" style="edgeStyle=orthogonalEdgeStyle;rounded=0;orthogonalLoop=1;jettySize=auto;html=1;entryX=0;entryY=0.5;entryDx=0;entryDy=0;" edge="1" parent="1" source="RPP7evLBG8meGlh0PdTi-17" target="RPP7evLBG8meGlh0PdTi-5">
          <mxGeometry relative="1" as="geometry" />
        </mxCell>
        <mxCell id="RPP7evLBG8meGlh0PdTi-25" value="Solace" style="edgeLabel;html=1;align=center;verticalAlign=middle;resizable=0;points=[];" vertex="1" connectable="0" parent="RPP7evLBG8meGlh0PdTi-24">
          <mxGeometry x="-0.137" y="-1" relative="1" as="geometry">
            <mxPoint x="1" y="-14" as="offset" />
          </mxGeometry>
        </mxCell>
        <mxCell id="RPP7evLBG8meGlh0PdTi-17" value="Signature Removal&lt;br&gt;+&lt;br&gt;Tuteut classify&amp;nbsp;" style="rounded=1;whiteSpace=wrap;html=1;strokeColor=#b46504;fillColor=#fad7ac;" vertex="1" parent="1">
          <mxGeometry x="210" y="170" width="120" height="60" as="geometry" />
        </mxCell>
        <mxCell id="RPP7evLBG8meGlh0PdTi-39" style="edgeStyle=orthogonalEdgeStyle;rounded=0;orthogonalLoop=1;jettySize=auto;html=1;entryX=0;entryY=0.5;entryDx=0;entryDy=0;" edge="1" parent="1" source="RPP7evLBG8meGlh0PdTi-18" target="RPP7evLBG8meGlh0PdTi-17">
          <mxGeometry relative="1" as="geometry" />
        </mxCell>
        <mxCell id="RPP7evLBG8meGlh0PdTi-42" value="Solace" style="edgeLabel;html=1;align=center;verticalAlign=middle;resizable=0;points=[];" vertex="1" connectable="0" parent="RPP7evLBG8meGlh0PdTi-39">
          <mxGeometry x="-0.2" y="-2" relative="1" as="geometry">
            <mxPoint y="-12" as="offset" />
          </mxGeometry>
        </mxCell>
        <mxCell id="RPP7evLBG8meGlh0PdTi-40" style="edgeStyle=orthogonalEdgeStyle;rounded=0;orthogonalLoop=1;jettySize=auto;html=1;entryX=1;entryY=0.5;entryDx=0;entryDy=0;" edge="1" parent="1" source="RPP7evLBG8meGlh0PdTi-18">
          <mxGeometry relative="1" as="geometry">
            <mxPoint x="-100" y="200" as="targetPoint" />
          </mxGeometry>
        </mxCell>
        <mxCell id="RPP7evLBG8meGlh0PdTi-41" value="extract" style="edgeLabel;html=1;align=center;verticalAlign=middle;resizable=0;points=[];" vertex="1" connectable="0" parent="RPP7evLBG8meGlh0PdTi-40">
          <mxGeometry x="0.2444" y="-3" relative="1" as="geometry">
            <mxPoint x="6" y="-7" as="offset" />
          </mxGeometry>
        </mxCell>
        <mxCell id="RPP7evLBG8meGlh0PdTi-18" value="Email Extract" style="rounded=1;whiteSpace=wrap;html=1;strokeColor=#b46504;fillColor=#fad7ac;" vertex="1" parent="1">
          <mxGeometry x="-10" y="170" width="120" height="60" as="geometry" />
        </mxCell>
        <mxCell id="RPP7evLBG8meGlh0PdTi-26" style="edgeStyle=orthogonalEdgeStyle;rounded=0;orthogonalLoop=1;jettySize=auto;html=1;entryX=0;entryY=0.25;entryDx=0;entryDy=0;" edge="1" parent="1" source="RPP7evLBG8meGlh0PdTi-20" target="RPP7evLBG8meGlh0PdTi-6">
          <mxGeometry relative="1" as="geometry">
            <Array as="points">
              <mxPoint x="390" y="265" />
              <mxPoint x="390" y="265" />
            </Array>
          </mxGeometry>
        </mxCell>
        <mxCell id="RPP7evLBG8meGlh0PdTi-43" value="Solace" style="edgeLabel;html=1;align=center;verticalAlign=middle;resizable=0;points=[];" vertex="1" connectable="0" parent="RPP7evLBG8meGlh0PdTi-26">
          <mxGeometry x="-0.1507" y="-1" relative="1" as="geometry">
            <mxPoint x="2" y="-12" as="offset" />
          </mxGeometry>
        </mxCell>
        <mxCell id="RPP7evLBG8meGlh0PdTi-57" style="edgeStyle=orthogonalEdgeStyle;rounded=0;orthogonalLoop=1;jettySize=auto;html=1;entryX=1;entryY=0.5;entryDx=0;entryDy=0;" edge="1" parent="1" source="RPP7evLBG8meGlh0PdTi-20" target="RPP7evLBG8meGlh0PdTi-56">
          <mxGeometry relative="1" as="geometry" />
        </mxCell>
        <mxCell id="RPP7evLBG8meGlh0PdTi-20" value="IRIS extract" style="rounded=1;whiteSpace=wrap;html=1;strokeColor=#b46504;fillColor=#fad7ac;" vertex="1" parent="1">
          <mxGeometry x="210" y="250" width="120" height="60" as="geometry" />
        </mxCell>
        <mxCell id="RPP7evLBG8meGlh0PdTi-27" style="edgeStyle=orthogonalEdgeStyle;rounded=0;orthogonalLoop=1;jettySize=auto;html=1;entryX=0;entryY=0.75;entryDx=0;entryDy=0;" edge="1" parent="1" source="RPP7evLBG8meGlh0PdTi-21" target="RPP7evLBG8meGlh0PdTi-6">
          <mxGeometry relative="1" as="geometry">
            <Array as="points">
              <mxPoint x="423" y="350" />
              <mxPoint x="423" y="295" />
            </Array>
          </mxGeometry>
        </mxCell>
        <mxCell id="RPP7evLBG8meGlh0PdTi-44" value="Solace" style="edgeLabel;html=1;align=center;verticalAlign=middle;resizable=0;points=[];" vertex="1" connectable="0" parent="RPP7evLBG8meGlh0PdTi-27">
          <mxGeometry x="-0.8109" y="-2" relative="1" as="geometry">
            <mxPoint x="28" y="-12" as="offset" />
          </mxGeometry>
        </mxCell>
        <mxCell id="RPP7evLBG8meGlh0PdTi-64" style="edgeStyle=orthogonalEdgeStyle;rounded=0;orthogonalLoop=1;jettySize=auto;html=1;entryX=1;entryY=0.5;entryDx=0;entryDy=0;" edge="1" parent="1" source="RPP7evLBG8meGlh0PdTi-21" target="RPP7evLBG8meGlh0PdTi-60">
          <mxGeometry relative="1" as="geometry" />
        </mxCell>
        <mxCell id="RPP7evLBG8meGlh0PdTi-21" value="EDI extract" style="rounded=1;whiteSpace=wrap;html=1;strokeColor=#b46504;fillColor=#fad7ac;" vertex="1" parent="1">
          <mxGeometry x="210" y="335" width="120" height="60" as="geometry" />
        </mxCell>
        <mxCell id="RPP7evLBG8meGlh0PdTi-29" style="edgeStyle=orthogonalEdgeStyle;rounded=0;orthogonalLoop=1;jettySize=auto;html=1;entryX=0;entryY=0.5;entryDx=0;entryDy=0;" edge="1" parent="1" source="RPP7evLBG8meGlh0PdTi-22" target="RPP7evLBG8meGlh0PdTi-7">
          <mxGeometry relative="1" as="geometry">
            <Array as="points">
              <mxPoint x="423" y="440" />
              <mxPoint x="423" y="370" />
            </Array>
          </mxGeometry>
        </mxCell>
        <mxCell id="RPP7evLBG8meGlh0PdTi-30" style="edgeStyle=orthogonalEdgeStyle;rounded=0;orthogonalLoop=1;jettySize=auto;html=1;" edge="1" parent="1" source="RPP7evLBG8meGlh0PdTi-22" target="RPP7evLBG8meGlh0PdTi-8">
          <mxGeometry relative="1" as="geometry">
            <Array as="points">
              <mxPoint x="423" y="440" />
              <mxPoint x="423" y="460" />
            </Array>
          </mxGeometry>
        </mxCell>
        <mxCell id="RPP7evLBG8meGlh0PdTi-45" value="Solace" style="edgeLabel;html=1;align=center;verticalAlign=middle;resizable=0;points=[];" vertex="1" connectable="0" parent="RPP7evLBG8meGlh0PdTi-30">
          <mxGeometry x="-0.5931" y="1" relative="1" as="geometry">
            <mxPoint x="10" y="-10" as="offset" />
          </mxGeometry>
        </mxCell>
        <mxCell id="RPP7evLBG8meGlh0PdTi-74" style="edgeStyle=orthogonalEdgeStyle;rounded=0;orthogonalLoop=1;jettySize=auto;html=1;entryX=1;entryY=0.5;entryDx=0;entryDy=0;" edge="1" parent="1" source="RPP7evLBG8meGlh0PdTi-22" target="RPP7evLBG8meGlh0PdTi-61">
          <mxGeometry relative="1" as="geometry">
            <Array as="points">
              <mxPoint x="170" y="450" />
              <mxPoint x="170" y="450" />
            </Array>
          </mxGeometry>
        </mxCell>
        <mxCell id="RPP7evLBG8meGlh0PdTi-22" value="ILM extract" style="rounded=1;whiteSpace=wrap;html=1;strokeColor=#b46504;fillColor=#fad7ac;" vertex="1" parent="1">
          <mxGeometry x="210" y="420" width="120" height="60" as="geometry" />
        </mxCell>
        <mxCell id="RPP7evLBG8meGlh0PdTi-32" style="edgeStyle=orthogonalEdgeStyle;rounded=0;orthogonalLoop=1;jettySize=auto;html=1;entryX=0;entryY=0.75;entryDx=0;entryDy=0;exitX=1;exitY=0.5;exitDx=0;exitDy=0;" edge="1" parent="1" source="RPP7evLBG8meGlh0PdTi-28" target="RPP7evLBG8meGlh0PdTi-8">
          <mxGeometry relative="1" as="geometry">
            <Array as="points">
              <mxPoint x="423" y="530" />
              <mxPoint x="423" y="475" />
            </Array>
          </mxGeometry>
        </mxCell>
        <mxCell id="RPP7evLBG8meGlh0PdTi-46" value="Solace" style="edgeLabel;html=1;align=center;verticalAlign=middle;resizable=0;points=[];" vertex="1" connectable="0" parent="RPP7evLBG8meGlh0PdTi-32">
          <mxGeometry x="-0.2023" y="-1" relative="1" as="geometry">
            <mxPoint x="-40" y="-11" as="offset" />
          </mxGeometry>
        </mxCell>
        <mxCell id="RPP7evLBG8meGlh0PdTi-68" style="edgeStyle=orthogonalEdgeStyle;rounded=0;orthogonalLoop=1;jettySize=auto;html=1;entryX=1;entryY=0.5;entryDx=0;entryDy=0;" edge="1" parent="1" source="RPP7evLBG8meGlh0PdTi-28" target="RPP7evLBG8meGlh0PdTi-62">
          <mxGeometry relative="1" as="geometry" />
        </mxCell>
        <mxCell id="RPP7evLBG8meGlh0PdTi-70" value="Consume" style="edgeLabel;html=1;align=center;verticalAlign=middle;resizable=0;points=[];" vertex="1" connectable="0" parent="RPP7evLBG8meGlh0PdTi-68">
          <mxGeometry x="0.24" y="-1" relative="1" as="geometry">
            <mxPoint x="3" y="-9" as="offset" />
          </mxGeometry>
        </mxCell>
        <mxCell id="RPP7evLBG8meGlh0PdTi-69" style="edgeStyle=orthogonalEdgeStyle;rounded=0;orthogonalLoop=1;jettySize=auto;html=1;entryX=1;entryY=0.5;entryDx=0;entryDy=0;" edge="1" parent="1" source="RPP7evLBG8meGlh0PdTi-28" target="RPP7evLBG8meGlh0PdTi-63">
          <mxGeometry relative="1" as="geometry">
            <Array as="points">
              <mxPoint x="190" y="530" />
              <mxPoint x="190" y="610" />
            </Array>
          </mxGeometry>
        </mxCell>
        <mxCell id="RPP7evLBG8meGlh0PdTi-71" value="http" style="edgeLabel;html=1;align=center;verticalAlign=middle;resizable=0;points=[];" vertex="1" connectable="0" parent="RPP7evLBG8meGlh0PdTi-69">
          <mxGeometry x="0.2556" relative="1" as="geometry">
            <mxPoint x="-27" y="-11" as="offset" />
          </mxGeometry>
        </mxCell>
        <mxCell id="RPP7evLBG8meGlh0PdTi-28" value="STT" style="rounded=1;whiteSpace=wrap;html=1;strokeColor=#b46504;fillColor=#fad7ac;" vertex="1" parent="1">
          <mxGeometry x="210" y="500" width="120" height="60" as="geometry" />
        </mxCell>
        <mxCell id="RPP7evLBG8meGlh0PdTi-37" style="edgeStyle=orthogonalEdgeStyle;rounded=0;orthogonalLoop=1;jettySize=auto;html=1;entryX=1;entryY=0.5;entryDx=0;entryDy=0;" edge="1" parent="1" source="RPP7evLBG8meGlh0PdTi-33" target="RPP7evLBG8meGlh0PdTi-35">
          <mxGeometry relative="1" as="geometry" />
        </mxCell>
        <mxCell id="RPP7evLBG8meGlh0PdTi-33" value="DOM CRM" style="rounded=1;whiteSpace=wrap;html=1;strokeColor=#b46504;fillColor=#fad7ac;" vertex="1" parent="1">
          <mxGeometry x="715" width="120" height="40" as="geometry" />
        </mxCell>
        <mxCell id="RPP7evLBG8meGlh0PdTi-38" style="edgeStyle=orthogonalEdgeStyle;rounded=0;orthogonalLoop=1;jettySize=auto;html=1;entryX=1;entryY=0.5;entryDx=0;entryDy=0;" edge="1" parent="1" source="RPP7evLBG8meGlh0PdTi-34" target="RPP7evLBG8meGlh0PdTi-35">
          <mxGeometry relative="1" as="geometry" />
        </mxCell>
        <mxCell id="RPP7evLBG8meGlh0PdTi-34" value="DOM labelly" style="rounded=1;whiteSpace=wrap;html=1;strokeColor=#b46504;fillColor=#fad7ac;" vertex="1" parent="1">
          <mxGeometry x="715" y="70" width="120" height="40" as="geometry" />
        </mxCell>
        <mxCell id="RPP7evLBG8meGlh0PdTi-36" style="edgeStyle=orthogonalEdgeStyle;rounded=0;orthogonalLoop=1;jettySize=auto;html=1;" edge="1" parent="1" source="RPP7evLBG8meGlh0PdTi-35" target="RPP7evLBG8meGlh0PdTi-5">
          <mxGeometry relative="1" as="geometry" />
        </mxCell>
        <mxCell id="RPP7evLBG8meGlh0PdTi-35" value="API Gateway" style="rounded=1;whiteSpace=wrap;html=1;strokeColor=#b46504;fillColor=#fad7ac;" vertex="1" parent="1">
          <mxGeometry x="501" y="20" width="120" height="60" as="geometry" />
        </mxCell>
        <mxCell id="RPP7evLBG8meGlh0PdTi-47" value="" style="endArrow=none;html=1;entryX=0;entryY=0.5;entryDx=0;entryDy=0;entryPerimeter=0;" edge="1" parent="1" target="RPP7evLBG8meGlh0PdTi-13">
          <mxGeometry width="50" height="50" relative="1" as="geometry">
            <mxPoint x="620" y="200" as="sourcePoint" />
            <mxPoint x="666" y="150" as="targetPoint" />
          </mxGeometry>
        </mxCell>
        <mxCell id="RPP7evLBG8meGlh0PdTi-50" value="" style="endArrow=none;html=1;entryX=0;entryY=0.5;entryDx=0;entryDy=0;entryPerimeter=0;" edge="1" parent="1" target="RPP7evLBG8meGlh0PdTi-14">
          <mxGeometry width="50" height="50" relative="1" as="geometry">
            <mxPoint x="620" y="280" as="sourcePoint" />
            <mxPoint x="666" y="230" as="targetPoint" />
          </mxGeometry>
        </mxCell>
        <mxCell id="RPP7evLBG8meGlh0PdTi-51" value="" style="endArrow=none;html=1;entryX=0;entryY=0.5;entryDx=0;entryDy=0;entryPerimeter=0;" edge="1" parent="1" target="RPP7evLBG8meGlh0PdTi-12">
          <mxGeometry width="50" height="50" relative="1" as="geometry">
            <mxPoint x="620" y="370" as="sourcePoint" />
            <mxPoint x="666" y="320" as="targetPoint" />
          </mxGeometry>
        </mxCell>
        <mxCell id="RPP7evLBG8meGlh0PdTi-52" value="" style="endArrow=none;html=1;entryX=0;entryY=0.5;entryDx=0;entryDy=0;entryPerimeter=0;exitX=1;exitY=0.5;exitDx=0;exitDy=0;" edge="1" parent="1" source="RPP7evLBG8meGlh0PdTi-8" target="RPP7evLBG8meGlh0PdTi-10">
          <mxGeometry width="50" height="50" relative="1" as="geometry">
            <mxPoint x="630" y="460" as="sourcePoint" />
            <mxPoint x="720" y="470" as="targetPoint" />
          </mxGeometry>
        </mxCell>
        <mxCell id="RPP7evLBG8meGlh0PdTi-53" value="" style="endArrow=none;html=1;entryX=0;entryY=0.5;entryDx=0;entryDy=0;entryPerimeter=0;" edge="1" parent="1" target="RPP7evLBG8meGlh0PdTi-16">
          <mxGeometry width="50" height="50" relative="1" as="geometry">
            <mxPoint x="620" y="550" as="sourcePoint" />
            <mxPoint x="720" y="560" as="targetPoint" />
          </mxGeometry>
        </mxCell>
        <mxCell id="RPP7evLBG8meGlh0PdTi-56" value="CPT EMS" style="rounded=1;whiteSpace=wrap;html=1;strokeColor=#999999;fillColor=#CCCCCC;" vertex="1" parent="1">
          <mxGeometry x="40" y="255" width="90" height="50" as="geometry" />
        </mxCell>
        <mxCell id="RPP7evLBG8meGlh0PdTi-60" value="EDI EMS" style="rounded=1;whiteSpace=wrap;html=1;strokeColor=#999999;fillColor=#CCCCCC;" vertex="1" parent="1">
          <mxGeometry x="40" y="340" width="90" height="50" as="geometry" />
        </mxCell>
        <mxCell id="RPP7evLBG8meGlh0PdTi-61" value="ILM EMS" style="rounded=1;whiteSpace=wrap;html=1;strokeColor=#999999;fillColor=#CCCCCC;" vertex="1" parent="1">
          <mxGeometry x="40" y="425" width="90" height="50" as="geometry" />
        </mxCell>
        <mxCell id="RPP7evLBG8meGlh0PdTi-62" value="Azure Blob" style="rounded=1;whiteSpace=wrap;html=1;strokeColor=#999999;fillColor=#CCCCCC;" vertex="1" parent="1">
          <mxGeometry x="20" y="505" width="90" height="50" as="geometry" />
        </mxCell>
        <mxCell id="RPP7evLBG8meGlh0PdTi-63" value="Speech&amp;nbsp; API" style="rounded=1;whiteSpace=wrap;html=1;strokeColor=#999999;fillColor=#CCCCCC;" vertex="1" parent="1">
          <mxGeometry x="20" y="585" width="90" height="50" as="geometry" />
        </mxCell>
        <mxCell id="RPP7evLBG8meGlh0PdTi-65" value="NAG Solace" style="rounded=1;whiteSpace=wrap;html=1;strokeColor=#999999;fillColor=#CCCCCC;" vertex="1" parent="1">
          <mxGeometry x="240" y="585" width="90" height="50" as="geometry" />
        </mxCell>
        <mxCell id="RPP7evLBG8meGlh0PdTi-67" value="Consume" style="text;html=1;align=center;verticalAlign=middle;resizable=0;points=[];autosize=1;" vertex="1" parent="1">
          <mxGeometry x="340" y="590" width="70" height="20" as="geometry" />
        </mxCell>
        <mxCell id="RPP7evLBG8meGlh0PdTi-72" value="Mailbox" style="rounded=1;whiteSpace=wrap;html=1;strokeColor=#999999;fillColor=#CCCCCC;" vertex="1" parent="1">
          <mxGeometry x="-190" y="175" width="90" height="50" as="geometry" />
        </mxCell>
        <mxCell id="RPP7evLBG8meGlh0PdTi-75" value="Consume" style="text;html=1;align=center;verticalAlign=middle;resizable=0;points=[];autosize=1;" vertex="1" parent="1">
          <mxGeometry x="139" y="261" width="70" height="20" as="geometry" />
        </mxCell>
        <mxCell id="RPP7evLBG8meGlh0PdTi-76" value="Consume" style="text;html=1;align=center;verticalAlign=middle;resizable=0;points=[];autosize=1;" vertex="1" parent="1">
          <mxGeometry x="139" y="345" width="70" height="20" as="geometry" />
        </mxCell>
        <mxCell id="RPP7evLBG8meGlh0PdTi-79" value="Consume" style="text;html=1;align=center;verticalAlign=middle;resizable=0;points=[];autosize=1;" vertex="1" parent="1">
          <mxGeometry x="139" y="430" width="70" height="20" as="geometry" />
        </mxCell>
      </root>
    </mxGraphModel>
  </diagram>
</mxfile>
